<svg xmlns="http://www.w3.org/2000/svg" width="220" height="44" viewBox="0 0 220 44">
  <defs>
    <linearGradient id="dkrbg" x1="0%" y1="0%" x2="0%" y2="100%">
      <stop offset="0%" style="stop-color:#2496ED"/>
      <stop offset="100%" style="stop-color:#1a7fd4"/>
    </linearGradient>
  </defs>
  <rect rx="6" width="220" height="44" fill="url(#dkrbg)"/>
  <rect rx="6" width="220" height="44" fill="none" stroke="#5bb8f5" stroke-width="1" opacity="0.3"/>
  <!-- Docker Whale Logo -->
  <g transform="translate(14, 10)">
    <!-- Container boxes (3x2 grid + 1 on top) -->
    <rect x="6" y="0" width="4" height="3.5" rx="0.5" fill="#ffffff"/>
    <rect x="0" y="4.5" width="4" height="3.5" rx="0.5" fill="#ffffff"/>
    <rect x="5" y="4.5" width="4" height="3.5" rx="0.5" fill="#ffffff"/>
    <rect x="10" y="4.5" width="4" height="3.5" rx="0.5" fill="#ffffff"/>
    <rect x="15" y="4.5" width="4" height="3.5" rx="0.5" fill="#ffffff"/>
    <rect x="0" y="9" width="4" height="3.5" rx="0.5" fill="#ffffff"/>
    <rect x="5" y="9" width="4" height="3.5" rx="0.5" fill="#ffffff"/>
    <rect x="10" y="9" width="4" height="3.5" rx="0.5" fill="#ffffff"/>
    <rect x="15" y="9" width="4" height="3.5" rx="0.5" fill="#ffffff"/>
    <!-- Whale body -->
    <path d="M-2,13.5 C-2,13.5 -3,16 0,18 C3,20 8,21 16,21 C22,21 26,18 27,15 C28,12 26,13 24,13.5 C22,14 21,13.5 21,13.5 L-2,13.5Z" fill="#ffffff" opacity="0.9"/>
    <!-- Whale eye -->
    <circle cx="24" cy="16" r="0.8" fill="#2496ED"/>
    <!-- Water spout -->
    <path d="M26,11 C27,9 29,10 28,8 C27,6 29,5 28,4" fill="none" stroke="#ffffff" stroke-width="1" stroke-linecap="round" opacity="0.6"/>
  </g>
  <!-- Text -->
  <text x="133" y="27" fill="#ffffff" font-family="-apple-system,Segoe UI,Helvetica,Arial,sans-serif" font-size="14" font-weight="600" text-anchor="middle">Deploy with Docker</text>
</svg>
