<svg width="170" height="40" xmlns="http://www.w3.org/2000/svg">
  <rect width="170" height="40" rx="4" fill="#0F1689"/>
  
  <!-- Helm Official Logo -->
  <g transform="translate(24,12)">
    <path d="M16 8c0 4.4-3.6 8-8 8s-8-3.6-8-8 3.6-8 8-8 8 3.6 8 8zM8 2c-3.3 0-6 2.7-6 6s2.7 6 6 6 6-2.7 6-6-2.7-6-6-6z" fill="white"/>
    <path d="M8 0C3.6 0 0 3.6 0 8s3.6 8 8 8 8-3.6 8-8-3.6-8-8-8zm0 14c-3.3 0-6-2.7-6-6s2.7-6 6-6 6 2.7 6 6-2.7 6-6 6z" fill="white" fill-opacity="0.5"/>
    <path d="M8 3c2.8 0 5 2.2 5 5s-2.2 5-5 5-5-2.2-5-5 2.2-5 5-5zm0 8c1.7 0 3-1.3 3-3s-1.3-3-3-3-3 1.3-3 3 1.3 3 3 3z" fill="white"/>
  </g>
  
  <!-- Text -->
  <text x="100" y="25" text-anchor="middle" font-family="Arial, sans-serif" font-weight="500" font-size="14" fill="white">
    Deploy with Helm
  </text>
</svg> 